<svg width="144" height="27" viewBox="0 0 144 27" fill="none" xmlns="http://www.w3.org/2000/svg">
<path d="M13.9336 26.4902C11.3622 26.4902 8.84862 25.7277 6.71067 24.299C4.57272 22.8703 2.90648 20.8397 1.92269 18.464C0.9389 16.0882 0.681742 13.4741 1.18376 10.9522C1.68577 8.43034 2.92439 6.11397 4.74297 4.29609C6.56156 2.4782 8.87841 1.24046 11.4005 0.739422C13.9226 0.238379 16.5366 0.496537 18.912 1.48124C21.2873 2.46595 23.3173 4.13297 24.7451 6.27147C26.173 8.40996 26.9346 10.9239 26.9336 13.4952H21.3746C21.3744 12.0246 20.9382 10.5871 20.121 9.3644C19.3038 8.14171 18.1425 7.18877 16.7838 6.62608C15.4251 6.06339 13.93 5.91622 12.4877 6.20317C11.0453 6.49012 9.72043 7.19831 8.68055 8.23819C7.64067 9.27808 6.93248 10.603 6.64553 12.0453C6.35858 13.4877 6.50575 14.9827 7.06844 16.3414C7.63113 17.7001 8.58407 18.8615 9.80676 19.6786C11.0294 20.4958 12.467 20.932 13.9376 20.9322L13.9336 26.4902Z" fill="black"/>
<path d="M21.3696 13.5C19.3975 13.5003 17.5063 14.2838 16.1118 15.6782C14.7174 17.0727 13.9339 18.9639 13.9336 20.936H21.3696V13.5Z" fill="black"/>
<path d="M44.6447 21.5784C43.1168 21.6151 41.6078 21.2348 40.2798 20.4784C39.0367 19.7452 38.024 18.6781 37.3568 17.3984C36.6631 15.97 36.3027 14.4028 36.3027 12.8149C36.3027 11.227 36.6631 9.65983 37.3568 8.23143C38.0257 6.94979 39.0377 5.87929 40.2798 5.13943C41.616 4.40724 43.1151 4.02344 44.6387 4.02344C46.1624 4.02344 47.6615 4.40724 48.9977 5.13943C50.2447 5.87665 51.2609 6.94757 51.9317 8.23143C52.626 9.65964 52.9868 11.2269 52.9868 12.8149C52.9868 14.4029 52.626 15.9702 51.9317 17.3984C51.2625 18.6792 50.246 19.7456 48.9987 20.4754C47.6738 21.2299 46.1691 21.6111 44.6447 21.5784ZM44.6447 18.9594C45.6368 18.9797 46.615 18.7234 47.4697 18.2194C48.2965 17.7149 48.955 16.9764 49.3618 16.0974C49.8025 15.0531 50.0296 13.931 50.0296 12.7974C50.0296 11.6639 49.8025 10.5418 49.3618 9.49743C48.9544 8.61883 48.2961 7.88047 47.4697 7.37543C46.6051 6.89022 45.6302 6.63539 44.6387 6.63539C43.6473 6.63539 42.6724 6.89022 41.8078 7.37543C40.9864 7.88289 40.3325 8.62089 39.9277 9.49743C39.487 10.5418 39.2599 11.6639 39.2599 12.7974C39.2599 13.931 39.487 15.0531 39.9277 16.0974C40.332 16.9743 40.986 17.7125 41.8078 18.2194C42.6656 18.7265 43.6485 18.9828 44.6447 18.9594ZM48.7677 23.8334L42.7287 14.3764H46.0757L52.2347 23.8334H48.7677Z" fill="black"/>
<path d="M60.0239 21.5784C59.1499 21.6017 58.2848 21.397 57.5139 20.9844C56.7978 20.5744 56.2323 19.9452 55.9009 19.1894C55.5032 18.2596 55.3128 17.2543 55.3429 16.2434V9.06543H58.2529V15.9284C58.1933 16.7775 58.4289 17.6212 58.9199 18.3164C59.1725 18.5982 59.4865 18.818 59.8377 18.959C60.1888 19.1 60.5677 19.1583 60.9449 19.1294C61.4881 19.136 62.022 18.9887 62.4849 18.7044C62.9512 18.4163 63.329 18.0052 63.5769 17.5164C63.8613 16.9245 63.9985 16.2727 63.9769 15.6164V9.06543H66.8869V21.2874H64.3159L64.0979 19.2504C63.7453 19.9598 63.1929 20.5507 62.5089 20.9504C61.7537 21.3834 60.8942 21.6006 60.0239 21.5784Z" fill="black"/>
<path d="M73.7577 21.5782C72.9006 21.606 72.049 21.4317 71.2717 21.0692C70.6505 20.7753 70.1313 20.3024 69.7807 19.7112C69.4565 19.1429 69.2891 18.4986 69.2957 17.8442C69.2803 17.1354 69.4881 16.4396 69.8897 15.8552C70.3339 15.2522 70.9451 14.7925 71.6477 14.5332C72.5707 14.1927 73.5503 14.0321 74.5337 14.0602H77.6137C77.6311 13.5095 77.5361 12.9611 77.3347 12.4482C77.1687 12.0425 76.8748 11.7019 76.4977 11.4782C76.0505 11.2415 75.5483 11.1282 75.0427 11.1502C74.4429 11.1319 73.8511 11.2924 73.3427 11.6112C73.1081 11.7671 72.909 11.9708 72.7586 12.209C72.6081 12.4471 72.5097 12.7144 72.4697 12.9932H69.6077C69.6838 12.1731 69.9906 11.3912 70.4927 10.7382C71.0032 10.0942 71.6715 9.59294 72.4327 9.28324C73.2583 8.93865 74.1452 8.76549 75.0397 8.77425C76.0622 8.74501 77.078 8.9481 78.0107 9.36824C78.7883 9.72938 79.439 10.3166 79.8777 11.0532C80.3284 11.8684 80.5506 12.7902 80.5207 13.7212V21.2872H78.0207L77.7297 19.3472C77.5678 19.6707 77.3596 19.9688 77.1117 20.2322C76.8537 20.504 76.5601 20.7395 76.2387 20.9322C75.8955 21.1398 75.5253 21.2993 75.1387 21.4062C74.6882 21.5254 74.2237 21.5833 73.7577 21.5782ZM74.4127 19.2782C74.8464 19.2852 75.2765 19.1985 75.6737 19.0242C76.0409 18.8577 76.3647 18.6085 76.6197 18.2962C76.881 17.9756 77.0896 17.6154 77.2377 17.2292C77.3917 16.8289 77.4857 16.408 77.5167 15.9802V15.9322H74.8487C74.3666 15.9156 73.8856 15.9895 73.4307 16.1502C73.1079 16.2652 72.8254 16.4716 72.6177 16.7442C72.4372 17.0035 72.3437 17.3134 72.3507 17.6292C72.3391 17.9486 72.4283 18.2635 72.6057 18.5292C72.7887 18.7823 73.0418 18.9763 73.3337 19.0872C73.6776 19.2198 74.0443 19.2834 74.4127 19.2742V19.2782Z" fill="black"/>
<path d="M83.3086 21.2869V9.0649H85.9086L86.1506 11.3439C86.4402 10.8328 86.8083 10.3705 87.2416 9.97389C87.6867 9.57974 88.2062 9.27881 88.7696 9.08889C89.41 8.87204 90.0825 8.76553 90.7586 8.77389V11.8289H89.7156C89.2488 11.8266 88.7839 11.8879 88.3336 12.0109C87.9176 12.1213 87.532 12.3243 87.2056 12.6049C86.8714 12.9083 86.6211 13.2926 86.4786 13.7209C86.2952 14.276 86.209 14.8585 86.2236 15.4429V21.2869H83.3086Z" fill="black"/>
<path d="M98.3232 21.2869C97.5889 21.3039 96.8589 21.1719 96.1772 20.8989C95.5746 20.6447 95.0778 20.1909 94.7702 19.6139C94.4038 18.8599 94.2319 18.0263 94.2702 17.1889V11.4889H92.1602V9.06487H94.2702L94.6102 5.83887H97.1802V9.06487H100.48V11.4899H97.1802V17.1899C97.1544 17.4173 97.1755 17.6476 97.2422 17.8666C97.309 18.0855 97.4199 18.2885 97.5682 18.4629C97.9648 18.7373 98.4462 18.8618 98.9261 18.8139H100.426V21.2879L98.3232 21.2869Z" fill="black"/>
<path d="M107.968 21.5783C106.849 21.6015 105.744 21.3253 104.768 20.7783C103.853 20.2519 103.105 19.4787 102.61 18.5473C102.077 17.5305 101.81 16.3952 101.834 15.2473C101.808 14.078 102.071 12.9205 102.598 11.8763C103.087 10.9273 103.835 10.1366 104.756 9.59632C105.74 9.03285 106.86 8.748 107.994 8.77232C109.086 8.7452 110.165 9.02216 111.11 9.57232C111.974 10.0882 112.685 10.8247 113.171 11.7063C113.674 12.6362 113.929 13.6802 113.911 14.7373V15.2593C113.909 15.4662 113.893 15.6728 113.862 15.8773H103.919V14.0123H110.977C110.978 13.6214 110.899 13.2345 110.744 12.8756C110.589 12.5166 110.362 12.1935 110.077 11.9263C109.5 11.4049 108.744 11.1269 107.967 11.1503C107.391 11.1449 106.823 11.2871 106.318 11.5633C105.81 11.8454 105.396 12.2712 105.13 12.7873C104.818 13.4239 104.668 14.1278 104.694 14.8363V15.5363C104.675 16.2117 104.82 16.8817 105.118 17.4883C105.377 18.0045 105.776 18.4373 106.27 18.7373C106.777 19.0339 107.356 19.1848 107.943 19.1733C108.535 19.1966 109.122 19.0449 109.629 18.7373C110.057 18.4647 110.391 18.0667 110.586 17.5973H113.545C113.347 18.3471 112.978 19.0405 112.466 19.6223C111.934 20.2329 111.276 20.7211 110.538 21.0533C109.729 21.412 108.852 21.5911 107.968 21.5783Z" fill="black"/>
<path d="M116.309 21.2869V9.06489H118.909L119.151 11.3439C119.44 10.8325 119.809 10.3702 120.243 9.97388C120.687 9.57931 121.207 9.27833 121.771 9.08888C122.411 8.8721 123.083 8.7656 123.759 8.77389V11.8289H122.716C122.249 11.8267 121.784 11.8879 121.334 12.0109C120.918 12.1215 120.532 12.3245 120.206 12.6049C119.872 12.9086 119.621 13.2928 119.479 13.7209C119.295 14.276 119.209 14.8585 119.224 15.4429V21.2869H116.309Z" fill="black"/>
<path d="M125.588 21.2872V3.82617H128.498V21.2872H125.588Z" fill="black"/>
<path d="M132.883 26.6224L135.842 19.9294H135.115L130.24 9.06543H133.417L137.031 17.3834L140.474 9.06543H143.554L135.963 26.6224H132.883Z" fill="black"/>
</svg>
